<svg width="301" height="301" viewBox="0 0 301 301" fill="none" xmlns="http://www.w3.org/2000/svg">
<path d="M300.037 254.21C278.877 246.228 262.054 229.402 254.072 208.237C246.093 229.402 229.269 246.228 208.109 254.21C229.27 262.192 246.093 279.019 254.072 300.184C262.054 279.019 278.877 262.193 300.037 254.21Z" fill="url(#paint0_linear_1191_960)"/>
<mask id="mask0_1191_960" style="mask-type:luminance" maskUnits="userSpaceOnUse" x="0" y="0" width="234" height="301">
<path d="M116.872 0.398926C52.4978 0.398926 0.313477 52.5948 0.313477 116.982C0.313477 178.593 48.0964 229.041 108.617 233.276L80.7053 293.144C118.211 310.637 162.793 294.408 180.284 256.893L222.471 166.403C229.503 151.398 233.432 134.648 233.432 116.982C233.432 52.5956 181.246 0.398926 116.872 0.398926ZM116.874 162.956C108.893 141.791 92.0688 124.964 70.9091 116.982C92.0696 109 108.893 92.1731 116.874 71.0083C124.853 92.1731 141.676 109 162.838 116.982C141.675 124.964 124.853 141.791 116.874 162.956Z" fill="white"/>
</mask>
<g mask="url(#mask0_1191_960)">
<path d="M78.7097 246.807C129.658 246.807 170.96 205.496 170.96 154.537C170.96 103.578 129.658 62.2676 78.7097 62.2676C27.761 62.2676 -13.541 103.578 -13.541 154.537C-13.541 205.496 27.761 246.807 78.7097 246.807Z" fill="url(#paint1_linear_1191_960)"/>
</g>
<mask id="mask1_1191_960" style="mask-type:luminance" maskUnits="userSpaceOnUse" x="0" y="0" width="234" height="301">
<path d="M116.872 0.398926C52.4978 0.398926 0.313477 52.5948 0.313477 116.982C0.313477 178.593 48.0964 229.041 108.617 233.276L80.7053 293.144C118.211 310.637 162.793 294.408 180.284 256.893L222.471 166.403C229.503 151.398 233.432 134.648 233.432 116.982C233.432 52.5956 181.246 0.398926 116.872 0.398926ZM116.874 162.956C108.893 141.791 92.0688 124.964 70.9091 116.982C92.0696 109 108.893 92.1731 116.874 71.0083C124.853 92.1731 141.676 109 162.838 116.982C141.675 124.964 124.853 141.791 116.874 162.956Z" fill="white"/>
</mask>
<g mask="url(#mask1_1191_960)">
<path d="M145.95 168.434C190.282 168.434 226.22 132.489 226.22 88.1479C226.22 43.8071 190.282 7.86182 145.95 7.86182C101.619 7.86182 65.6807 43.8071 65.6807 88.1479C65.6807 132.489 101.619 168.434 145.95 168.434Z" fill="url(#paint2_linear_1191_960)"/>
</g>
<mask id="mask2_1191_960" style="mask-type:luminance" maskUnits="userSpaceOnUse" x="0" y="0" width="234" height="301">
<path d="M116.872 0.398926C52.4978 0.398926 0.313477 52.5948 0.313477 116.982C0.313477 178.593 48.0964 229.041 108.617 233.276L80.7053 293.144C118.211 310.637 162.793 294.408 180.284 256.893L222.471 166.403C229.503 151.398 233.432 134.648 233.432 116.982C233.432 52.5956 181.246 0.398926 116.872 0.398926ZM116.874 162.956C108.893 141.791 92.0688 124.964 70.9091 116.982C92.0696 109 108.893 92.1731 116.874 71.0083C124.853 92.1731 141.676 109 162.838 116.982C141.675 124.964 124.853 141.791 116.874 162.956Z" fill="white"/>
</mask>
<g mask="url(#mask2_1191_960)">
<path d="M-20.7207 -11.9019V246.146H67.9963C22.4599 240.681 -12.8358 201.908 -12.8358 154.89C-12.8358 104.126 28.308 62.973 79.0627 62.973C129.815 62.973 170.96 104.126 170.96 154.89C170.96 201.908 135.663 240.681 90.1275 246.146H277.218V-11.9019H-20.7207Z" fill="url(#paint3_linear_1191_960)"/>
</g>
<mask id="mask3_1191_960" style="mask-type:luminance" maskUnits="userSpaceOnUse" x="0" y="0" width="234" height="301">
<path d="M116.872 0.398926C52.4978 0.398926 0.313477 52.5948 0.313477 116.982C0.313477 178.593 48.0964 229.041 108.617 233.276L80.7053 293.144C118.211 310.637 162.793 294.408 180.284 256.893L222.471 166.403C229.503 151.398 233.432 134.648 233.432 116.982C233.432 52.5956 181.246 0.398926 116.872 0.398926ZM116.874 162.956C108.893 141.791 92.0688 124.964 70.9091 116.982C92.0696 109 108.893 92.1731 116.874 71.0083C124.853 92.1731 141.676 109 162.838 116.982C141.675 124.964 124.853 141.791 116.874 162.956Z" fill="white"/>
</mask>
<g mask="url(#mask3_1191_960)">
<path d="M284.164 0.736664V-6.14581H269.407L229.022 -24.9819L220.24 -6.14581H142.325C161.051 14.134 172.493 41.2437 172.493 71.0262C172.493 87.3805 169.042 102.928 162.831 116.982H162.836L162.731 117.208C162.182 118.44 161.613 119.661 161.024 120.87L77.8076 299.366L226.023 368.495L377.237 44.1473L284.164 0.736664Z" fill="url(#paint4_linear_1191_960)"/>
</g>
<defs>
<linearGradient id="paint0_linear_1191_960" x1="231.09" y1="277.198" x2="277.065" y2="231.233" gradientUnits="userSpaceOnUse">
<stop offset="0.0054" stop-color="#ED6AFF"/>
<stop offset="0.3118" stop-color="#9D94F5"/>
<stop offset="0.4903" stop-color="#9C91F4"/>
<stop offset="0.6151" stop-color="#9888F1"/>
<stop offset="0.7234" stop-color="#9279EC"/>
<stop offset="0.8225" stop-color="#8963E4"/>
<stop offset="0.9143" stop-color="#7E47DB"/>
<stop offset="1" stop-color="#7125CF"/>
</linearGradient>
<linearGradient id="paint1_linear_1191_960" x1="78.7094" y1="62.2684" x2="78.7094" y2="246.806" gradientUnits="userSpaceOnUse">
<stop stop-color="#9D94F5"/>
<stop offset="1" stop-color="#7125CF"/>
</linearGradient>
<linearGradient id="paint2_linear_1191_960" x1="175.678" y1="139.647" x2="114.859" y2="34.3274" gradientUnits="userSpaceOnUse">
<stop stop-color="#9D94F5"/>
<stop offset="1" stop-color="#7125CF"/>
</linearGradient>
<linearGradient id="paint3_linear_1191_960" x1="226.935" y1="117.123" x2="-71.0033" y2="117.123" gradientUnits="userSpaceOnUse">
<stop stop-color="#9D94F5"/>
<stop offset="0.1685" stop-color="#9B8FF3"/>
<stop offset="0.3673" stop-color="#9581EE"/>
<stop offset="0.5813" stop-color="#8C69E6"/>
<stop offset="0.8045" stop-color="#7F48DB"/>
<stop offset="1" stop-color="#7125CF"/>
</linearGradient>
<linearGradient id="paint4_linear_1191_960" x1="103.106" y1="321.619" x2="269.097" y2="34.1743" gradientUnits="userSpaceOnUse">
<stop offset="0.0054" stop-color="#ED6AFF"/>
<stop offset="0.3118" stop-color="#9D94F5"/>
<stop offset="0.4903" stop-color="#9C91F4"/>
<stop offset="0.6151" stop-color="#9888F1"/>
<stop offset="0.7234" stop-color="#9279EC"/>
<stop offset="0.8225" stop-color="#8963E4"/>
<stop offset="0.9143" stop-color="#7E47DB"/>
<stop offset="1" stop-color="#7125CF"/>
</linearGradient>
</defs>
</svg>
